<svg xmlns="http://www.w3.org/2000/svg" width="122" height="81.266" viewBox="0 0 122 81.266">
  <path id="Vereinigungsmenge_1" data-name="Vereinigungsmenge 1" d="M87.655,63.292V78.453H82.766V51.222l17.174,18V53.98h4.89V81.266ZM38.484,72.161l-.228-1.111L43.082,69.7l.2,1.376a3.335,3.335,0,0,0,3.2,3.045,3.213,3.213,0,0,0,3.309-3.077c0-1.664-1.172-2.282-3.244-3.229l-1.427-.622C42.44,65.969,39.6,64.35,39.6,60.43c0-3.893,3.173-6.83,7.381-6.83a7.5,7.5,0,0,1,6.767,4.058l.538.993L50.3,61.211,49.662,60.1a2.836,2.836,0,0,0-2.742-1.788,2.284,2.284,0,0,0-2.433,2.2c0,1.026,1.177,1.639,2.716,2.332l1.463.645c2.91,1.277,6.015,3,6.015,7.311a8.168,8.168,0,0,1-16.2,1.356Zm37.211,6.292V53.98h4.888V78.453Zm-7.083,0-7.876-8.825v8.825H55.846V53.98h4.888v7.7l7.652-7.7H75.15L63.539,65.5,75.294,78.453ZM104.825,37.71V52.871H99.94V25.64l17.17,18V28.4H122V55.684ZM7.307,40.7,4.993,52.871H0L5.49,24.249,13.947,43.8,22.43,24.259l5.489,28.612H22.924L20.609,40.685,13.942,55.536ZM86.034,53.234l-2.562-2.685-1.679-1.76v3.636a12.612,12.612,0,1,1,4.4.826C86.14,53.25,86.089,53.235,86.034,53.234Zm-7.644-12.6a7.807,7.807,0,1,0,7.806-7.9A7.862,7.862,0,0,0,78.389,40.634Zm-51.454.029a12.7,12.7,0,1,1,12.7,12.587A12.685,12.685,0,0,1,26.935,40.663Zm4.89-.029a7.807,7.807,0,1,0,7.806-7.9A7.862,7.862,0,0,0,31.825,40.634ZM67.213,52.871V28.4H72.1V52.871Zm-11.361,0V33.115H50.537V28.4H66.115v4.717H60.741V52.871Zm-32.466-28.8-.275-1.433L33.08,0,44.815,27.362H39.44l-2.6-6.254H29.052l-2.658,6.254-1.648,3.8Zm7.7-7.684H34.86l-1.866-4.475Zm13.26,4.576-.228-1.111L48.941,18.5l.2,1.376a3.335,3.335,0,0,0,3.2,3.045,3.213,3.213,0,0,0,3.309-3.077c0-1.665-1.172-2.282-3.244-3.229l-1.427-.622c-2.681-1.218-5.523-2.838-5.523-6.757,0-3.893,3.173-6.83,7.381-6.83a7.5,7.5,0,0,1,6.767,4.057l.537.993L56.16,10.017l-.638-1.106A2.836,2.836,0,0,0,52.78,7.122a2.284,2.284,0,0,0-2.433,2.2c0,1.026,1.177,1.639,2.716,2.332l1.463.645c2.91,1.277,6.014,3,6.014,7.311a8.168,8.168,0,0,1-16.2,1.356Zm22.894,6.292V16.9l-8.1-14.111h5.642l4.9,8.583,4.9-8.583h5.643L72.127,16.9V27.259Zm-60.3,0V2.786H20.791V7.5H11.824v4.11h8.7v4.716h-8.7v6.213h8.967v4.717Z" fill="#757474"/>
</svg>
