<svg xmlns="http://www.w3.org/2000/svg" viewBox="0 0 308.4 84" fill="#fff">
  <path d="M87.7 63.3v15.2h-4.9V51.2l17.2 18V54h4.9v27.3l-17.2-18zm-49.2 8.9-.2-1.2 4.8-1.4.2 1.4c.1 1.7 1.5 3 3.2 3 1.8.1 3.2-1.3 3.3-3.1 0-1.7-1.2-2.3-3.2-3.2l-1.4-.6c-2.7-1.2-5.5-2.8-5.5-6.8 0-3.9 3.2-6.8 7.4-6.8 2.8 0 5.5 1.5 6.8 4.1l.5 1-4 2.6-.6-1.1c-.4-1.1-1.5-1.8-2.7-1.8-1.3-.1-2.3.9-2.4 2.1v.1c0 1 1.2 1.6 2.7 2.3l1.5.6c2.9 1.3 6 3 6 7.3-.1 4.5-3.8 8.1-8.3 8-4.1.1-7.4-2.7-8.1-6.5zm37.2 6.3V54h4.9v24.5h-4.9zm-7.1 0-7.9-8.8v8.8h-4.9V54h4.9v7.7l7.7-7.7h6.8L63.5 65.5l11.8 13h-6.7zm36.2-40.8v15.2h-4.9V25.6l17.2 18V28.4h4.9v27.3l-17.2-18zm-97.5 3L5 52.9H0l5.5-28.6L14 43.9l8.5-19.5L28 53h-5l-2.3-12.2L14 55.7l-6.7-15zM86 53.2l-2.6-2.7-1.7-1.8v3.6c-6.5-2.5-9.8-9.8-7.3-16.3s9.8-9.8 16.3-7.3 9.8 9.8 7.3 16.3c-1.9 4.9-6.6 8.2-11.9 8.1 0 .1 0 .1-.1.1zm-7.6-12.6c.1 4.3 3.6 7.8 7.9 7.7 4.3-.1 7.8-3.6 7.7-7.9-.1-4.3-3.5-7.7-7.8-7.7-4.3.1-7.8 3.6-7.8 7.9zm-51.5.1c-.1-7 5.6-12.8 12.6-12.8 7-.1 12.8 5.6 12.8 12.6s-5.6 12.8-12.6 12.8h-.1c-6.9 0-12.6-5.7-12.7-12.6zm4.9-.1c.1 4.3 3.6 7.8 7.9 7.7 4.3-.1 7.8-3.6 7.7-7.9-.1-4.3-3.5-7.7-7.8-7.7-4.3.1-7.8 3.6-7.8 7.9zm35.4 12.3V28.4h4.9v24.5h-4.9zm-11.3 0V33.1h-5.3v-4.7h15.6v4.7h-5.4v19.8h-4.9zM23.4 24.1l-.3-1.4L33.1 0l11.7 27.4h-5.4l-2.6-6.3H29l-2.7 6.3-1.6 3.8-1.3-7.1zm7.7-7.7h3.8L33 11.9l-1.9 4.5zM44.3 21l-.2-1.1 4.8-1.4.2 1.4c.1 1.7 1.5 3 3.2 3 1.8.1 3.2-1.3 3.3-3.1 0-1.7-1.2-2.3-3.2-3.2L51 16c-2.7-1.2-5.5-2.8-5.5-6.8 0-3.9 3.2-6.8 7.4-6.8 2.8 0 5.5 1.5 6.8 4.1l.5 1-4 2.6-.6-1.1c-.4-1.1-1.5-1.8-2.7-1.8-1.4-.2-2.5.8-2.5 2.1v.1c0 1 1.2 1.6 2.7 2.3l1.5.6c2.9 1.3 6 3 6 7.3-.1 4.5-3.8 8.1-8.3 8-3.9 0-7.3-2.8-8-6.6zm22.9 6.3V16.9L59.1 2.8h5.6l4.9 8.6 4.9-8.6h5.6L72 16.9v10.4h-4.8zm-60.3 0V2.8h13.9v4.7h-9v4.1h8.7v4.7h-8.7v6.2h9v4.7l-13.9.1zM306.9 60.8h-149l-11.2-31.5H307l-.1 31.5zm-18.4-12.6-1.1 1.5c.4.3.9.6 1.4.8.5.2 1.1.3 1.6.3s1-.1 1.4-.2c.4-.1.7-.3 1-.5.3-.2.5-.5.6-.8.1-.3.2-.7.2-1 0-.3-.1-.6-.2-.9-.1-.3-.3-.5-.5-.7-.2-.2-.4-.3-.7-.5-.2-.1-.5-.2-.8-.3-.1 0-.2-.1-.3-.1-.1 0-.2-.1-.3-.1-.2-.1-.3-.1-.5-.2-.1-.1-.2-.1-.3-.2-.1-.1-.1-.2-.1-.3 0-.4.3-.6.9-.6.3 0 .6.1.8.2.3.1.6.3.8.5l1.1-1.4c-.4-.3-.8-.5-1.2-.7-.5-.2-1.1-.3-1.6-.3-.4 0-.8.1-1.2.2-.3.1-.7.3-1 .5-.3.2-.5.5-.6.8-.1.3-.2.7-.2 1 0 .3.1.6.2.9.1.2.3.5.5.7.2.2.4.3.7.5.2.1.5.2.7.3.2.1.4.2.6.2.2.1.4.1.5.2.1.1.3.2.4.3.1.1.1.2.1.3 0 .2-.1.4-.2.5-.2.1-.5.2-.8.2-.3 0-.7-.1-1-.2-.2-.4-.5-.6-.9-.9zm-14.7-5.7c-.5 0-1 .1-1.5.3-.5.2-.9.5-1.2.8-.4.4-.7.8-.9 1.3-.2.6-.3 1.2-.3 1.8 0 .6.1 1.2.3 1.8.2.5.5.9.9 1.3s.8.6 1.2.8c.5.2 1 .3 1.5.3s1-.1 1.5-.3c.5-.2.9-.5 1.2-.8.4-.4.7-.8.9-1.3.2-.6.3-1.2.3-1.8 0-.6-.1-1.2-.3-1.8-.2-.5-.5-.9-.9-1.3-.4-.3-.8-.6-1.2-.8-.5-.2-1-.3-1.5-.3zm-13.1-1.9-.3 2.1-1.2.1v1.7h1.1v3.2c0 .4 0 .8.2 1.3.1.4.3.7.5 1 .2.3.5.5.8.6.4.2.8.2 1.3.2.3 0 .7 0 1-.1.3-.1.5-.1.7-.2l-.4-1.7c-.1 0-.2.1-.4.1h-.4c-.3 0-.5-.1-.7-.3-.2-.3-.3-.6-.3-1v-3.2h1.9v-1.8h-1.9v-2.1l-1.9.1zm-5.9 3.8c.3 0 .7.1.9.3.2.2.3.5.3.8-1.2.1-2.4.4-3.4.9-.7.4-1.1 1.2-1.1 2 0 .3.1.6.2.9.1.3.3.5.5.8.2.2.5.4.7.5.3.1.6.2 1 .2s.8-.1 1.2-.3c.4-.2.7-.4 1.1-.7h.1l.2.8h1.9v-4.5c.1-1-.2-1.9-.8-2.7-.6-.6-1.5-.9-2.3-.9-.6 0-1.2.1-1.8.3-.6.2-1.1.4-1.6.7l.8 1.6c.3-.2.7-.4 1.1-.5.3-.2.7-.2 1-.2zm-7.3-5v8.8c0 .4 0 .7.1 1.1.1.3.2.6.4.8.2.2.4.4.7.5.3.1.7.2 1 .2.2 0 .5 0 .7-.1.2 0 .3-.1.5-.1l-.3-1.7H250.3c-.1 0-.2-.1-.3-.1-.1-.1-.2-.3-.1-.5v-8.9h-2.4zm-4.9 3.1c-.5 0-1 .1-1.4.3-.4.2-.9.5-1.2.8-.4.4-.6.8-.8 1.3-.2.6-.3 1.1-.3 1.7 0 .6.1 1.2.3 1.8.2.5.5.9.8 1.3.4.4.8.6 1.3.8.5.2 1 .3 1.6.3.5 0 1-.1 1.5-.2.5-.2.9-.4 1.4-.7l-.8-1.4c-.5.3-1.1.5-1.7.5-.5 0-1-.1-1.4-.4-.4-.3-.6-.8-.7-1.3h4.7c0-.1.1-.3.1-.4v-.6c0-.5-.1-1-.2-1.5-.1-.4-.3-.9-.6-1.2-.3-.3-.6-.6-1.1-.8-.5-.2-1-.3-1.5-.3zm-27.6 0c-.5 0-1 .1-1.5.3-.5.2-.9.5-1.2.8-.4.4-.7.8-.9 1.3-.2.6-.3 1.2-.3 1.8 0 .6.1 1.2.3 1.8.2.5.5.9.9 1.3s.8.6 1.2.8c.5.2 1 .3 1.5.3s1-.1 1.5-.3c.5-.2.9-.5 1.2-.8.4-.4.7-.8.9-1.3.2-.6.3-1.2.3-1.8 0-.6-.1-1.2-.3-1.8-.2-.5-.5-.9-.9-1.3-.4-.3-.8-.6-1.2-.8-.5-.2-1-.3-1.5-.3zm-8.5-1.9-.3 2.1-1.2.1v1.7h1.1v3.2c0 .4 0 .8.1 1.3.1.4.3.7.5 1 .2.3.5.5.8.6.4.2.8.2 1.3.2.3 0 .7 0 1-.1.3-.1.5-.1.8-.2l-.4-1.7c-.1 0-.2.1-.4.1h-.4c-.3 0-.5-.1-.7-.3-.2-.3-.3-.6-.3-1v-3.2h1.9v-1.8h-1.9v-2.1l-1.9.1zm-7 7.6-1.1 1.5c.4.3.9.6 1.4.8.5.2 1.1.3 1.6.3s1-.1 1.4-.2c.4-.1.7-.3 1-.5.3-.2.5-.5.6-.8.1-.3.2-.7.2-1 0-.3-.1-.6-.2-.9-.1-.3-.3-.5-.5-.7-.2-.2-.4-.3-.7-.5-.2-.1-.5-.2-.8-.3l-.2-.1h-.1c-.1 0-.2-.1-.4-.1-.2-.1-.3-.1-.5-.2-.1-.1-.2-.1-.3-.2-.1-.1-.1-.2-.1-.3 0-.4.3-.6.9-.6.3 0 .6.1.8.2.3.1.6.3.8.5l1.1-1.4c-.4-.3-.8-.5-1.2-.7-.5-.2-1.1-.3-1.6-.3-.4 0-.8.1-1.2.2-.3.1-.7.3-1 .5-.3.2-.5.5-.6.8-.1.3-.2.7-.2 1 0 .3.1.6.2.9.1.2.3.5.5.7.2.2.4.3.7.5.2.1.5.2.7.3.2.1.4.2.6.2.2.1.4.1.5.2.1.1.3.2.4.3.1.1.1.2.1.3 0 .2-.1.4-.2.5-.2.1-.5.2-.8.2-.3 0-.7-.1-1-.2-.1-.4-.5-.6-.8-.9zm-5.3-5.7c-.5 0-1 .1-1.4.3-.5.2-.9.5-1.2.8-.4.4-.6.8-.8 1.3-.2.6-.3 1.1-.3 1.7 0 .6.1 1.2.3 1.8.2.5.5.9.8 1.3.4.4.8.6 1.3.8.5.2 1 .3 1.6.3.5 0 1-.1 1.5-.2.5-.2.9-.4 1.4-.7l-.8-1.4c-.5.3-1.1.5-1.7.5-.5 0-1-.1-1.4-.4-.4-.3-.7-.8-.7-1.3h4.8c0-.1 0-.2.1-.4v-.6c0-.5-.1-1-.2-1.5-.1-.4-.3-.9-.6-1.2-.3-.3-.6-.6-1.1-.8-.5-.2-1.1-.3-1.6-.3zm88.8 2c.3 0 .6.1.7.3.2.4.3.8.2 1.2v4.6h2.4v-4.9c0-.8-.2-1.6-.6-2.4-.4-.6-1.1-.9-1.9-.8-.5 0-1 .1-1.4.4-.4.2-.8.5-1.1.8h-.1l-.2-1h-1.9v7.9h2.4v-5.4c.2-.2.5-.4.7-.6.2 0 .5-.1.8-.1zm-17-1.8v7.9h2.4v-7.9H266zm-33.7 4.2h1.3l2 3.8h2.6l-2.4-4.2c.5-.2 1-.6 1.4-1.1.4-.6.5-1.2.5-1.9 0-.5-.1-1.1-.3-1.6-.2-.4-.5-.7-.9-1-.4-.3-.8-.4-1.3-.5-.5-.1-1-.2-1.6-.2h-3.8v10.4h2.4l.1-3.7zm-11.9-4.2v7.9h2.3V46c.1-.5.4-.8.8-1.1.3-.2.6-.3.9-.3h.4c.1 0 .3.1.4.1l.4-2c-.1-.1-.3-.1-.4-.1h-.6c-.4 0-.9.1-1.2.4-.4.3-.8.7-1 1.2h-.1l-.2-1.4c.2-.1-1.7-.1-1.7-.1zm-38.4 0 2.7 7.9h2.7l2.6-7.9h-2.3l-1 3.7c-.1.4-.2.9-.3 1.2-.1.4-.2.9-.3 1.2h-.1c-.1-.4-.2-.9-.3-1.2s-.2-.7-.3-1.2l-1-3.7H182zm-4.4 1.8c.3 0 .6.1.7.3.2.4.3.8.2 1.2v4.6h2.4v-4.9c0-.8-.2-1.6-.6-2.4-.4-.6-1.2-.9-1.9-.8-.5 0-1 .1-1.4.4-.4.2-.8.5-1.1.8h-.1l-.2-1h-1.9v7.9h2.4v-5.4c.2-.2.5-.4.7-.6.3 0 .5-.1.8-.1zm-8.4-4.3v10.4h2.4V40.2h-2.4zm98-1.1c-.4 0-.7.1-1 .3-.3.2-.4.5-.4.9 0 .3.1.7.4.9.3.2.6.4 1 .3.4 0 .7-.1 1-.3.2-.2.4-.6.4-.9 0-.3-.1-.7-.4-.9-.3-.2-.6-.3-1-.3zM254.8 49c-.2 0-.5-.1-.7-.2-.2-.1-.3-.4-.3-.6 0-.3.2-.6.5-.8.5-.3 1.1-.5 1.7-.5v1.4c-.2.2-.4.4-.6.5-.2.1-.4.2-.6.2zm19-.1c-.5 0-.9-.2-1.1-.6-.3-.5-.4-1.1-.4-1.6 0-.6.1-1.1.4-1.6.2-.4.6-.6 1.1-.6.4 0 .9.2 1.1.6.3.5.4 1.1.4 1.6 0 .6-.1 1.1-.4 1.6-.3.4-.7.6-1.1.6zm-58.8 0c-.4 0-.9-.2-1.1-.6-.3-.5-.4-1.1-.4-1.6 0-.6.1-1.1.4-1.6.2-.4.6-.6 1.1-.6.4 0 .9.2 1.1.6.3.5.4 1.1.4 1.6 0 .6-.1 1.1-.4 1.6-.3.4-.7.6-1.1.6zm28.9-3.1H241c0-.4.2-.8.5-1.1.3-.2.6-.4 1-.4s.8.1 1 .4c.3.3.5.7.4 1.1zm-48.3 0h-2.9c0-.4.2-.8.6-1.1.3-.2.6-.4 1-.4s.8.1 1 .4c.2.3.3.7.3 1.1zm37.9-.8h-1.2v-2.9h1.2c.5 0 1 .1 1.4.3.3.2.5.7.5 1.1 0 .4-.2.9-.5 1.2-.4.2-.9.3-1.4.3z"/>
	<path d="m137.356 3.598 1.138-.382 26.769 79.726-1.138.382z"/>
</svg>